REM DIRINDEX 1\2,1\3,1\4
REM DIRNAME folder01,folder02,folder03,folder04
TITLE ""
FILE "177 177_Lesson 5_TOEFL_3900.mp3" MP3
  TRACK 01 AUDIO
    TITLE "4:cjc151_7720"
    INDEX 01 00:00:00
  TRACK 02 AUDIO
    TITLE "0:"
    INDEX 01 00:01:44
  TRACK 03 AUDIO
    TITLE "2:cjc151_7721"
    INDEX 01 00:02:36
  TRACK 04 AUDIO
    TITLE "0:"
    INDEX 01 00:03:49
  TRACK 05 AUDIO
    TITLE "3:cjc151_7722"
    INDEX 01 00:05:26
  TRACK 06 AUDIO
    TITLE "0:"
    INDEX 01 00:08:66
  TRACK 07 AUDIO
    TITLE "2:cjc151_7723"
    INDEX 01 00:10:45
  TRACK 08 AUDIO
    TITLE "0:"
    INDEX 01 00:11:50
  TRACK 09 AUDIO
    TITLE "3:cjc151_7724"
    INDEX 01 00:13:32
  TRACK 10 AUDIO
    TITLE "0:"
    INDEX 01 00:16:69
  TRACK 11 AUDIO
    TITLE "2:cjc151_7725"
    INDEX 01 00:18:54
  TRACK 12 AUDIO
    TITLE "0:"
    INDEX 01 00:20:14
  TRACK 13 AUDIO
    TITLE "3:cjc151_7726"
    INDEX 01 00:21:70
  TRACK 14 AUDIO
    TITLE "0:"
    INDEX 01 00:25:62
  TRACK 15 AUDIO
    TITLE "2:cjc151_7727"
    INDEX 01 00:27:55
  TRACK 16 AUDIO
    TITLE "0:"
    INDEX 01 00:29:05
  TRACK 17 AUDIO
    TITLE "3:cjc151_7728"
    INDEX 01 00:30:57
  TRACK 18 AUDIO
    TITLE "0:"
    INDEX 01 00:35:08
  TRACK 19 AUDIO
    TITLE "2:cjc151_7729"
    INDEX 01 00:36:62
  TRACK 20 AUDIO
    TITLE "0:"
    INDEX 01 00:39:60
  TRACK 21 AUDIO
    TITLE "3:cjc151_7730"
    INDEX 01 00:41:36
  TRACK 22 AUDIO
    TITLE "0:"
    INDEX 01 00:45:32
  TRACK 23 AUDIO
    TITLE "2:cjc151_7731"
    INDEX 01 00:47:21
  TRACK 24 AUDIO
    TITLE "0:"
    INDEX 01 00:49:00
  TRACK 25 AUDIO
    TITLE "3:cjc151_7732"
    INDEX 01 00:50:44
  TRACK 26 AUDIO
    TITLE "0:"
    INDEX 01 00:54:29
  TRACK 27 AUDIO
    TITLE "2:cjc151_7733"
    INDEX 01 00:56:08
  TRACK 28 AUDIO
    TITLE "0:"
    INDEX 01 00:57:62
  TRACK 29 AUDIO
    TITLE "3:cjc151_7734"
    INDEX 01 00:59:39
  TRACK 30 AUDIO
    TITLE "0:"
    INDEX 01 01:04:03
  TRACK 31 AUDIO
    TITLE "2:cjc151_7735"
    INDEX 01 01:05:58
  TRACK 32 AUDIO
    TITLE "0:"
    INDEX 01 01:07:04
  TRACK 33 AUDIO
    TITLE "3:cjc151_7736"
    INDEX 01 01:08:56
  TRACK 34 AUDIO
    TITLE "0:"
    INDEX 01 01:12:46
  TRACK 35 AUDIO
    TITLE "2:cjc151_7737"
    INDEX 01 01:14:25
  TRACK 36 AUDIO
    TITLE "0:"
    INDEX 01 01:15:54
  TRACK 37 AUDIO
    TITLE "3:cjc151_7738"
    INDEX 01 01:17:32
  TRACK 38 AUDIO
    TITLE "0:"
    INDEX 01 01:22:09
  TRACK 39 AUDIO
    TITLE "2:cjc151_7739"
    INDEX 01 01:23:63
  TRACK 40 AUDIO
    TITLE "0:"
    INDEX 01 01:24:65
  TRACK 41 AUDIO
    TITLE "3:cjc151_7740"
    INDEX 01 01:26:44
  TRACK 42 AUDIO
    TITLE "0:"
    INDEX 01 01:30:20
  TRACK 43 AUDIO
    TITLE "2:cjc151_7741"
    INDEX 01 01:31:73
  TRACK 44 AUDIO
    TITLE "0:"
    INDEX 01 01:33:23
  TRACK 45 AUDIO
    TITLE "3:cjc151_7742"
    INDEX 01 01:34:73
  TRACK 46 AUDIO
    TITLE "0:"
    INDEX 01 01:39:23
  TRACK 47 AUDIO
    TITLE "2:cjc151_7743"
    INDEX 01 01:41:01
  TRACK 48 AUDIO
    TITLE "0:"
    INDEX 01 01:43:02
  TRACK 49 AUDIO
    TITLE "3:cjc151_7744"
    INDEX 01 01:44:54
  TRACK 50 AUDIO
    TITLE "0:"
    INDEX 01 01:49:16
  TRACK 51 AUDIO
    TITLE "2:cjc151_7745"
    INDEX 01 01:50:70
  TRACK 52 AUDIO
    TITLE "0:"
    INDEX 01 01:52:42
  TRACK 53 AUDIO
    TITLE "3:cjc151_7746"
    INDEX 01 01:54:23
  TRACK 54 AUDIO
    TITLE "0:"
    INDEX 01 01:59:10
  TRACK 55 AUDIO
    TITLE "2:cjc151_7747"
    INDEX 01 02:00:65
  TRACK 56 AUDIO
    TITLE "0:"
    INDEX 01 02:04:49
  TRACK 57 AUDIO
    TITLE "3:cjc151_7748"
    INDEX 01 02:06:28
  TRACK 58 AUDIO
    TITLE "0:"
    INDEX 01 02:11:70
  TRACK 59 AUDIO
    TITLE "2:cjc151_7749"
    INDEX 01 02:13:50
  TRACK 60 AUDIO
    TITLE "0:"
    INDEX 01 02:15:02
  TRACK 61 AUDIO
    TITLE "3:cjc151_7750"
    INDEX 01 02:16:50
  TRACK 62 AUDIO
    TITLE "0:"
    INDEX 01 02:20:34
  TRACK 63 AUDIO
    TITLE "2:cjc151_7751"
    INDEX 01 02:22:13
  TRACK 64 AUDIO
    TITLE "0:"
    INDEX 01 02:23:46
  TRACK 65 AUDIO
    TITLE "3:cjc151_7752"
    INDEX 01 02:25:25
  TRACK 66 AUDIO
    TITLE "0:"
    INDEX 01 02:29:55
  TRACK 67 AUDIO
    TITLE "2:cjc151_7753"
    INDEX 01 02:31:30
  TRACK 68 AUDIO
    TITLE "0:"
    INDEX 01 02:32:67
  TRACK 69 AUDIO
    TITLE "3:cjc151_7754"
    INDEX 01 02:34:42
  TRACK 70 AUDIO
    TITLE "0:"
    INDEX 01 02:41:24
  TRACK 71 AUDIO
    TITLE "2:cjc151_7755"
    INDEX 01 02:43:02
  TRACK 72 AUDIO
    TITLE "0:"
    INDEX 01 02:44:54
  TRACK 73 AUDIO
    TITLE "3:cjc151_7756"
    INDEX 01 02:46:33
  TRACK 74 AUDIO
    TITLE "0:"
    INDEX 01 02:50:37
  TRACK 75 AUDIO
    TITLE "2:cjc151_7757"
    INDEX 01 02:52:14
  TRACK 76 AUDIO
    TITLE "0:"
    INDEX 01 02:53:12
  TRACK 77 AUDIO
    TITLE "3:cjc151_7758"
    INDEX 01 02:54:64
  TRACK 78 AUDIO
    TITLE "0:"
    INDEX 01 03:00:04
  TRACK 79 AUDIO
    TITLE "2:cjc151_7759"
    INDEX 01 03:01:58
  TRACK 80 AUDIO
    TITLE "0:"
    INDEX 01 03:03:03
  TRACK 81 AUDIO
    TITLE "3:cjc151_7760"
    INDEX 01 03:04:55
  TRACK 82 AUDIO
    TITLE "0:"
    INDEX 01 03:08:74
  TRACK 83 AUDIO
    TITLE "2:cjc151_7761"
    INDEX 01 03:10:54
  TRACK 84 AUDIO
    TITLE "0:"
    INDEX 01 03:12:01
  TRACK 85 AUDIO
    TITLE "3:cjc151_7762"
    INDEX 01 03:13:58
  TRACK 86 AUDIO
    TITLE "0:"
    INDEX 01 03:17:44
  TRACK 87 AUDIO
    TITLE "2:cjc151_7763"
    INDEX 01 03:19:25
  TRACK 88 AUDIO
    TITLE "0:"
    INDEX 01 03:21:14
  TRACK 89 AUDIO
    TITLE "3:cjc151_7764"
    INDEX 01 03:22:68
  TRACK 90 AUDIO
    TITLE "0:"
    INDEX 01 03:27:30
